<svg width="42" height="44" viewBox="0 0 42 44" fill="none" xmlns="http://www.w3.org/2000/svg">
  <g clip-path="url(#clip0_sb)">
    <path d="M24.5479 42.9424C23.4461 44.3446 21.212 43.5763 21.1855 41.786L20.7972 15.5996H38.2213C41.3773 15.5996 43.1375 19.2832 41.175 21.7809L24.5479 42.9424Z" fill="url(#paint0_sb)"/>
    <path d="M24.5479 42.9424C23.4461 44.3446 21.212 43.5763 21.1855 41.786L20.7972 15.5996H38.2213C41.3773 15.5996 43.1375 19.2832 41.175 21.7809L24.5479 42.9424Z" fill="url(#paint1_sb)" fill-opacity="0.2"/>
    <path d="M17.4616 0.80622C18.5634 -0.596095 20.7975 0.172273 20.8241 1.96267L20.9942 28.149H3.78816C0.632093 28.149 -1.1281 24.4654 0.834433 21.9677L17.4616 0.80622Z" fill="#3ECF8E"/>
  </g>
  <defs>
    <linearGradient id="paint0_sb" x1="20.7972" y1="21.4058" x2="36.3314" y2="27.8529" gradientUnits="userSpaceOnUse">
      <stop stop-color="#249361"/>
      <stop offset="1" stop-color="#3ECF8E"/>
    </linearGradient>
    <linearGradient id="paint1_sb" x1="13.9316" y1="11.9065" x2="21.1101" y2="25.2788" gradientUnits="userSpaceOnUse">
      <stop/>
      <stop offset="1" stop-opacity="0"/>
    </linearGradient>
    <clipPath id="clip0_sb">
      <rect width="42" height="44" fill="white"/>
    </clipPath>
  </defs>
</svg>
